# xmcd
#
# Track frame offsets: 
#        150
#        12388
#        24388
#        36909
#        48516
#        60191
#        72757
#        83883
#        96314
#        108156
#        119405
#        132199
#        143513
#        156736
#        166223
#        178502
#        190404
#        204747
#        219951
#        234161
#        249325
#        260192
#        271212
#
# Disc length: 3798 seconds
#
# Revision: 0
# Processed by: cddbd v1.5.2PL0 Copyright (c) Steve Scherf et al.
# Submitted via: ExactAudioCopy v1.0b1
#
DISCID=410ed417
DTITLE=Freddie Scott - The Best Of The Columbia Recordings plus....
DYEAR=2010
DGENRE=Soul
TTITLE0=Lonely Man
TTITLE1=Giving You My Heart
TTITLE2=Blow Wind
TTITLE3=My Arm's Aren't Strong Enough
TTITLE4=One More Time Before I Go
TTITLE5=I'm Too Far Gone (To Turn Around)
TTITLE6=Just One Love
TTITLE7=It's Been Like This (All Of My Life)
TTITLE8=Sing Girl
TTITLE9=I'll Try Again
TTITLE10=Don't Let It End
TTITLE11=Mr. Heartache
TTITLE12=One Heartache Too Many
TTITLE13=Come Up Singing
TTITLE14=Forget Me If You Can
TTITLE15=One Iddy Biddy Needle (And A Little Bit Of Thread)
TTITLE16=Let It Be Me
TTITLE17=For Your Love
TTITLE18=Spanish Harlem
TTITLE19=Bring It On Home To Me
TTITLE20=Everything I Have Is Yours
TTITLE21=Laura
TTITLE22=There Goes My Heart
EXTD=
EXTT0=
EXTT1=
EXTT2=
EXTT3=
EXTT4=
EXTT5=
EXTT6=
EXTT7=
EXTT8=
EXTT9=
EXTT10=
EXTT11=
EXTT12=
EXTT13=
EXTT14=
EXTT15=
EXTT16=
EXTT17=
EXTT18=
EXTT19=
EXTT20=
EXTT21=
EXTT22=
PLAYORDER=
